<?xml version="1.0" encoding="utf-8"?>
<!-- Generator: Adobe Illustrator 14.0.0, SVG Export Plug-In . SVG Version: 6.00 Build 43363)  -->
<!DOCTYPE svg PUBLIC "-//W3C//DTD SVG 1.1//EN" "http://www.w3.org/Graphics/SVG/1.1/DTD/svg11.dtd">
<svg version="1.1" id="Ebene_1" xmlns="http://www.w3.org/2000/svg" xmlns:xlink="http://www.w3.org/1999/xlink" x="0px" y="0px"
	 width="135px" height="72px" viewBox="0 0 135 72" enable-background="new 0 0 135 72" xml:space="preserve">
<g>
	<path fill="#B1B3B4" d="M35.577,13.732C15.588,18.093,1.489,28.237,0.11,41.364c-1.182,11.229,7.209,22.256,21.332,30.48
		c-7.144-7.106-10.988-15.292-10.11-23.635c0.909-8.658,6.702-16.122,15.722-21.654C27.812,21.595,30.952,16.771,35.577,13.732"/>
	<path fill="#B1B3B4" d="M80.752,16.825c13.232,1.391,25.289,4.975,35.195,9.969c-11.408-7.4-27.208-12.885-45.076-14.764
		c-4.569-0.48-9.054-0.702-13.414-0.687c3.018,1.128,5.684,2.819,7.823,4.917C70.281,16.092,75.461,16.269,80.752,16.825"/>
	<path d="M62.946,43.104c0,0.214-0.035,0.249-0.239,0.249H58.79c-0.201,0-0.249-0.035-0.249-0.249v-7.655
		c0-0.214,0.048-0.251,0.249-0.251h3.906c0.236,0,0.297,0.024,0.297,0.13l-0.035,0.168l-0.228,0.799
		c-0.047,0.179-0.177,0.189-0.272,0.189h-2.313v1.965h2.025c0.214,0,0.25,0.035,0.25,0.252v0.784c0,0.215-0.046,0.25-0.25,0.25
		h-2.025v2.335h2.55c0.215,0,0.25,0.033,0.25,0.249V43.104z"/>
	<path d="M66.804,43.308c-0.048,0.13-0.062,0.152-0.226,0.152H65.6c-0.166,0-0.177-0.022-0.226-0.152l-1.893-5.49l-0.061-0.202
		c0-0.094,0.084-0.106,0.263-0.131l0.988-0.105l0.19-0.014c0.094,0,0.13,0.119,0.166,0.24l0.725,2.677
		c0.133,0.477,0.31,1.288,0.384,1.729h0.023c0.071-0.432,0.26-1.264,0.404-1.729l0.81-2.677c0.036-0.133,0.072-0.24,0.167-0.24
		l0.188,0.014l0.812,0.105c0.177,0.024,0.261,0.037,0.261,0.131l-0.059,0.202L66.804,43.308z"/>
	<path d="M72.196,40.688c-0.297,0-1.68-0.094-1.68,0.953c0,0.463,0.335,0.809,0.787,0.809c0.44,0,0.749-0.31,0.893-0.453V40.688z
		 M72.923,43.509l-0.155,0.049c-0.107,0-0.285-0.418-0.345-0.715c-0.239,0.238-0.656,0.715-1.549,0.715
		c-1.096,0-1.786-0.715-1.786-1.834c0-2.011,2.169-2.011,3.108-2.011v-0.371c0-0.536-0.095-0.882-0.846-0.882
		c-0.666,0-1.321,0.359-1.477,0.359l-0.118-0.118l-0.238-0.728l-0.037-0.143c0-0.274,1.18-0.562,2.098-0.562
		c1.489,0,2.047,0.68,2.047,1.92v2.297c0,1.153,0.311,1.31,0.311,1.547l-0.107,0.106L72.923,43.509z"/>
	<path d="M79.96,43.186c0,0.133-0.025,0.17-0.169,0.17h-1.177c-0.144,0-0.167-0.037-0.167-0.17V39.52
		c0-0.451-0.06-0.998-0.667-0.998c-0.5,0-0.894,0.345-1.048,0.488v4.176c0,0.133-0.023,0.17-0.168,0.17h-1.178
		c-0.142,0-0.166-0.037-0.166-0.17v-3.592c0-1.68-0.227-1.585-0.227-1.859l0.129-0.129l0.905-0.299l0.181-0.037
		c0.154,0,0.25,0.262,0.381,0.821c0.345-0.308,0.881-0.821,1.82-0.821c0.656,0,1.55,0.299,1.55,1.74V43.186z"/>
	<path d="M84.627,38.877c-0.156-0.118-0.405-0.355-0.941-0.355c-0.715,0-1.024,0.668-1.024,1.81c0,1.084,0.238,1.763,0.953,1.763
		c0.607,0,0.894-0.298,1.013-0.406V38.877z M86.055,41.045c0,0.786,0.061,2.013,0.061,2.679c0,1.297-0.644,2.155-2.299,2.155
		c-0.93,0-2.465-0.382-2.465-0.633l0.048-0.236l0.226-0.727l0.133-0.121c0.142,0,0.868,0.466,1.928,0.466
		c0.833,0,0.977-0.345,0.977-1.011c0-0.418-0.035-0.703-0.035-0.787c-0.181,0.119-0.632,0.453-1.44,0.453
		c-1.334,0-2.036-1.117-2.036-2.905c0-1.918,0.833-3.108,2.25-3.108c0.844,0,1.189,0.37,1.415,0.562
		c0.035-0.107,0.251-0.562,0.419-0.562l0.118,0.024l0.926,0.346l0.109,0.108c0,0.153-0.333,0.582-0.333,1.522V41.045z"/>
	<path d="M90.615,39.713c0-0.488-0.035-1.334-0.856-1.334c-0.93,0-0.977,0.998-1.014,1.334H90.615z M91.996,42.724l0.035,0.131
		c0,0.311-1.189,0.701-2.132,0.701c-1.57,0-2.666-0.892-2.666-3.083c0-1.894,1.013-3.203,2.607-3.203
		c2.025,0,2.383,1.811,2.383,3.25c0,0.228-0.051,0.3-0.274,0.3h-3.204c0,0.667,0.19,1.488,1.311,1.488
		c0.856,0,1.346-0.394,1.513-0.394l0.13,0.094L91.996,42.724z"/>
	<path d="M96.115,43.128l0.025,0.096c0,0.167-0.635,0.332-1.204,0.332c-1.465,0-1.465-1.201-1.465-2.297v-6.072
		c0-0.179,0.085-0.179,0.227-0.214l1.001-0.201l0.165-0.038c0.096,0,0.12,0.048,0.12,0.25v6.489c0,0.381,0,0.716,0.334,0.716
		c0.236,0,0.395-0.108,0.464-0.108l0.095,0.072L96.115,43.128z"/>
	<path d="M98.246,36.699c-0.549,0-0.989-0.44-0.989-0.988s0.44-0.977,0.989-0.977c0.536,0,0.978,0.429,0.978,0.977
		S98.782,36.699,98.246,36.699 M99.01,43.186c0,0.133-0.025,0.17-0.168,0.17h-1.178c-0.143,0-0.168-0.037-0.168-0.17v-4.606h-0.915
		c-0.144,0-0.169-0.035-0.169-0.165v-0.775c0-0.129,0.025-0.165,0.169-0.165h2.261c0.143,0,0.168,0.036,0.168,0.165V43.186z"/>
	<path d="M104.188,38.663l-0.095,0.106c-0.037,0-0.62-0.31-1.381-0.31c-0.454,0-0.786,0.168-0.786,0.573
		c0,0.645,1.072,0.596,1.918,1.153c0.464,0.31,0.796,0.763,0.796,1.454c0,1.095-0.774,1.915-2.034,1.915
		c-0.882,0-2.24-0.451-2.24-0.771l0.061-0.155l0.263-0.68l0.095-0.104c0.047,0,0.964,0.521,1.699,0.521
		c0.395,0,0.729-0.164,0.729-0.595c0-0.691-1.166-0.691-1.954-1.214c-0.357-0.237-0.7-0.653-0.7-1.344
		c0-1.085,0.82-1.943,2.105-1.943c0.727,0,1.856,0.31,1.856,0.584l-0.059,0.155L104.188,38.663z"/>
	<path d="M109.82,42.808l0.035,0.117c0,0.287-0.965,0.631-1.679,0.631c-1.657,0-2.645-1.011-2.645-3.022s1.014-3.264,2.773-3.264
		c0.645,0,1.692,0.358,1.692,0.726l-0.035,0.109l-0.442,0.772l-0.083,0.062c-0.118,0-0.513-0.479-1.132-0.479
		c-0.809,0-1.165,0.62-1.165,1.99c0,1.309,0.311,1.915,1.226,1.915c0.606,0,0.847-0.403,1.061-0.403l0.084,0.06L109.82,42.808z"/>
	<path d="M115.677,43.186c0,0.133-0.024,0.17-0.166,0.17h-1.179c-0.143,0-0.169-0.037-0.169-0.17V39.52
		c0-0.451-0.058-0.998-0.664-0.998c-0.499,0-0.857,0.355-1.015,0.497v4.167c0,0.133-0.021,0.17-0.164,0.17h-1.181
		c-0.144,0-0.164-0.037-0.164-0.17v-7.998c0-0.18,0.083-0.18,0.225-0.215l1.001-0.201l0.166-0.037c0.096,0,0.117,0.048,0.117,0.25
		v2.964c0.323-0.264,0.798-0.68,1.646-0.68c1.262,0,1.547,0.848,1.547,1.882V43.186z"/>
	<path d="M120.415,40.747c0,0.215-0.034,0.252-0.249,0.252h-2.906c-0.214,0-0.25-0.037-0.25-0.252v-0.87
		c0-0.214,0.036-0.248,0.25-0.248h2.906c0.215,0,0.249,0.034,0.249,0.248V40.747z"/>
	<path d="M66.125,55.092c0,0.133-0.026,0.168-0.167,0.168h-1.178c-0.144,0-0.169-0.035-0.169-0.168v-3.666
		c0-0.451-0.045-0.998-0.497-0.998c-0.501,0-0.895,0.344-1.049,0.487v4.177c0,0.133-0.025,0.168-0.166,0.168h-1.179
		c-0.143,0-0.168-0.035-0.168-0.168v-3.666c0-0.451-0.045-0.998-0.499-0.998c-0.501,0-0.892,0.344-1.047,0.487v4.177
		c0,0.133-0.022,0.168-0.167,0.168h-1.18c-0.142,0-0.164-0.035-0.164-0.168v-3.593c0-1.678-0.227-1.583-0.227-1.857l0.131-0.13
		l0.903-0.299l0.181-0.036c0.153,0,0.249,0.26,0.378,0.82c0.358-0.309,0.882-0.82,1.823-0.82c0.511,0,1.071,0.321,1.215,0.82
		c0.357-0.309,0.868-0.82,1.845-0.82c1.119,0,1.381,0.846,1.381,1.882V55.092z"/>
	<path d="M70.769,51.616c0-0.486-0.036-1.333-0.857-1.333c-0.929,0-0.977,1-1.012,1.333H70.769z M72.149,54.629l0.033,0.131
		c0,0.31-1.189,0.704-2.131,0.704c-1.57,0-2.665-0.895-2.665-3.086c0-1.893,1.011-3.201,2.606-3.201c2.025,0,2.383,1.809,2.383,3.25
		c0,0.226-0.049,0.299-0.273,0.299h-3.203c0,0.664,0.191,1.487,1.31,1.487c0.858,0,1.345-0.393,1.511-0.393l0.132,0.096
		L72.149,54.629z"/>
	<path d="M77.21,54.916l0.022,0.096c0,0.226-0.868,0.452-1.68,0.452c-1.536,0-1.536-1.204-1.536-2.3v-2.679h-0.845
		c-0.144,0-0.166-0.035-0.166-0.165v-0.776c0-0.128,0.022-0.165,0.166-0.165h0.845v-1.5c0-0.156,0.027-0.191,0.192-0.214
		l1.047-0.142l0.154-0.015c0.107,0,0.121,0.062,0.121,0.205v1.665h1.356c0.105,0,0.201,0,0.201,0.133l-0.011,0.095l-0.154,0.7
		c-0.036,0.168-0.071,0.179-0.215,0.179h-1.178v2.882c0,0.381,0,0.726,0.405,0.726c0.474,0,0.772-0.226,0.94-0.226l0.095,0.071
		L77.21,54.916z"/>
	<path d="M82.816,55.092c0,0.133-0.024,0.168-0.168,0.168h-1.177c-0.143,0-0.168-0.035-0.168-0.168v-3.666
		c0-0.451-0.058-0.998-0.665-0.998c-0.5,0-0.856,0.356-1.015,0.498v4.166c0,0.133-0.021,0.168-0.164,0.168h-1.181
		c-0.143,0-0.164-0.035-0.164-0.168v-7.999c0-0.18,0.081-0.18,0.227-0.214l0.999-0.202l0.167-0.038c0.095,0,0.116,0.049,0.116,0.252
		v2.965c0.322-0.263,0.801-0.679,1.646-0.679c1.263,0,1.547,0.846,1.547,1.882V55.092z"/>
	<path d="M87.708,52.32c0-1.109-0.153-1.954-0.974-1.954c-0.822,0-0.977,0.845-0.977,1.954c0,1.107,0.143,1.952,0.977,1.952
		C87.565,54.272,87.708,53.438,87.708,52.32 M86.734,55.464c-1.609,0-2.584-1.227-2.584-3.144c0-1.919,0.975-3.144,2.584-3.144
		c1.595,0,2.582,1.225,2.582,3.144C89.316,54.237,88.341,55.464,86.734,55.464"/>
	<path d="M93.722,50.604c-0.107-0.059-0.308-0.238-0.808-0.238c-0.895,0-1.074,0.666-1.074,1.989c0,1.347,0.229,1.917,1.003,1.917
		c0.534,0,0.735-0.264,0.879-0.418V50.604z M94.437,55.415l-0.154,0.049c-0.107,0-0.285-0.418-0.346-0.716
		c-0.19,0.18-0.715,0.716-1.571,0.716c-1.357,0-2.037-1.097-2.037-2.906c0-2.251,0.81-3.381,2.286-3.381
		c0.644,0,0.917,0.225,1.107,0.357v-2.441c0-0.18,0.084-0.18,0.228-0.214l1-0.202l0.166-0.038c0.095,0,0.119,0.049,0.119,0.252
		v6.502c0,1.153,0.215,1.31,0.215,1.546l-0.107,0.107L94.437,55.415z"/>
	<path d="M98.032,48.604c-0.548,0-0.988-0.439-0.988-0.988c0-0.546,0.44-0.978,0.988-0.978c0.536,0,0.978,0.432,0.978,0.978
		C99.01,48.165,98.568,48.604,98.032,48.604 M98.795,55.092c0,0.133-0.024,0.168-0.168,0.168H97.45
		c-0.145,0-0.168-0.035-0.168-0.168v-4.606h-0.916c-0.143,0-0.169-0.035-0.169-0.165v-0.776c0-0.128,0.026-0.165,0.169-0.165h2.261
		c0.144,0,0.168,0.037,0.168,0.165V55.092z"/>
	<path d="M103.975,50.569l-0.096,0.106c-0.035,0-0.62-0.31-1.381-0.31c-0.452,0-0.786,0.168-0.786,0.573
		c0,0.642,1.071,0.595,1.916,1.153c0.465,0.31,0.799,0.763,0.799,1.453c0,1.096-0.774,1.916-2.036,1.916
		c-0.881,0-2.239-0.45-2.239-0.771l0.06-0.156l0.262-0.68l0.095-0.106c0.048,0,0.966,0.524,1.702,0.524
		c0.395,0,0.729-0.166,0.729-0.596c0-0.69-1.169-0.69-1.952-1.215c-0.358-0.236-0.705-0.653-0.705-1.344
		c0-1.084,0.822-1.941,2.109-1.941c0.727,0,1.856,0.309,1.856,0.583l-0.061,0.154L103.975,50.569z"/>
	<path d="M109.188,54.916l0.023,0.096c0,0.226-0.867,0.452-1.678,0.452c-1.536,0-1.536-1.204-1.536-2.3v-2.679h-0.847
		c-0.144,0-0.165-0.035-0.165-0.165v-0.776c0-0.128,0.021-0.165,0.165-0.165h0.847v-1.5c0-0.156,0.024-0.191,0.189-0.214
		l1.048-0.142l0.154-0.015c0.107,0,0.121,0.062,0.121,0.205v1.665h1.355c0.107,0,0.202,0,0.202,0.133l-0.012,0.095l-0.154,0.7
		c-0.036,0.168-0.071,0.179-0.214,0.179h-1.178v2.882c0,0.381,0,0.726,0.404,0.726c0.476,0,0.773-0.226,0.941-0.226l0.094,0.071
		L109.188,54.916z"/>
	<path d="M111.259,48.604c-0.548,0-0.987-0.439-0.987-0.988c0-0.546,0.439-0.978,0.987-0.978c0.536,0,0.978,0.432,0.978,0.978
		C112.236,48.165,111.795,48.604,111.259,48.604 M112.023,55.092c0,0.133-0.026,0.168-0.169,0.168h-1.18
		c-0.141,0-0.165-0.035-0.165-0.168v-4.606h-0.917c-0.142,0-0.167-0.035-0.167-0.165v-0.776c0-0.128,0.025-0.165,0.167-0.165h2.262
		c0.143,0,0.169,0.037,0.169,0.165V55.092z"/>
	<path d="M117.202,50.569l-0.096,0.106c-0.035,0-0.619-0.31-1.382-0.31c-0.451,0-0.786,0.168-0.786,0.573
		c0,0.642,1.072,0.595,1.917,1.153c0.465,0.31,0.798,0.763,0.798,1.453c0,1.096-0.774,1.916-2.035,1.916
		c-0.881,0-2.238-0.45-2.238-0.771l0.059-0.156l0.262-0.68l0.095-0.106c0.049,0,0.965,0.524,1.702,0.524
		c0.395,0,0.728-0.166,0.728-0.596c0-0.69-1.168-0.69-1.951-1.215c-0.358-0.236-0.705-0.653-0.705-1.344
		c0-1.084,0.821-1.941,2.108-1.941c0.728,0,1.856,0.309,1.856,0.583l-0.059,0.154L117.202,50.569z"/>
	<path d="M122.833,54.713l0.035,0.119c0,0.286-0.964,0.63-1.679,0.63c-1.656,0-2.644-1.012-2.644-3.022
		c0-2.012,1.013-3.263,2.773-3.263c0.644,0,1.691,0.357,1.691,0.725l-0.035,0.107l-0.439,0.775l-0.084,0.06
		c-0.119,0-0.512-0.478-1.133-0.478c-0.808,0-1.165,0.619-1.165,1.989c0,1.309,0.31,1.917,1.225,1.917
		c0.609,0,0.846-0.405,1.063-0.405l0.081,0.061L122.833,54.713z"/>
	<path d="M128.691,55.092c0,0.133-0.025,0.168-0.168,0.168h-1.179c-0.142,0-0.166-0.035-0.166-0.168v-3.666
		c0-0.451-0.06-0.998-0.667-0.998c-0.5,0-0.856,0.356-1.013,0.498v4.166c0,0.133-0.022,0.168-0.165,0.168h-1.18
		c-0.144,0-0.167-0.035-0.167-0.168v-7.999c0-0.18,0.084-0.18,0.225-0.214l1.001-0.202l0.168-0.038c0.096,0,0.118,0.049,0.118,0.252
		v2.965c0.323-0.263,0.796-0.679,1.645-0.679c1.261,0,1.548,0.846,1.548,1.882V55.092z"/>
	<path d="M133.394,51.616c0-0.486-0.036-1.333-0.856-1.333c-0.929,0-0.977,1-1.013,1.333H133.394z M134.775,54.629l0.034,0.131
		c0,0.31-1.189,0.704-2.132,0.704c-1.57,0-2.665-0.895-2.665-3.086c0-1.893,1.012-3.201,2.605-3.201c2.025,0,2.382,1.809,2.382,3.25
		c0,0.226-0.048,0.299-0.273,0.299h-3.202c0,0.664,0.19,1.487,1.31,1.487c0.858,0,1.346-0.393,1.513-0.393l0.132,0.096
		L134.775,54.629z"/>
	<path d="M60.255,66.918c0,0.213-0.048,0.248-0.25,0.248h-1.108c-0.201,0-0.25-0.035-0.25-0.248V59.26
		c0-0.215,0.049-0.249,0.25-0.249h1.108c0.202,0,0.25,0.034,0.25,0.249v3.335h0.023l2.62-3.633l0.202-0.153l0.214,0.095l0.81,0.405
		l0.156,0.142c0,0.121-0.048,0.144-0.084,0.19l-2.536,3.347l2.797,3.479c0.038,0.047,0.085,0.069,0.085,0.188l-0.156,0.142
		l-0.952,0.479l-0.216,0.094l-0.203-0.154l-2.737-3.644h-0.023V66.918z"/>
	<path d="M66.493,60.511c-0.547,0-0.989-0.439-0.989-0.988c0-0.547,0.442-0.977,0.989-0.977c0.538,0,0.978,0.43,0.978,0.977
		C67.471,60.071,67.03,60.511,66.493,60.511 M67.255,67.001c0,0.13-0.024,0.165-0.167,0.165h-1.179
		c-0.142,0-0.167-0.035-0.167-0.165v-4.609h-0.916c-0.144,0-0.169-0.034-0.169-0.164v-0.774c0-0.131,0.025-0.168,0.169-0.168h2.261
		c0.143,0,0.167,0.037,0.167,0.168V67.001z"/>
	<path d="M70.564,67.001c0,0.13-0.022,0.165-0.167,0.165H69.22c-0.144,0-0.167-0.035-0.167-0.165v-3.596
		c0-1.311-0.309-1.525-0.309-1.8l0.106-0.106l0.904-0.369l0.155-0.047c0.142,0,0.381,0.534,0.44,0.939
		c0.227-0.274,0.666-0.939,1.478-0.939c0.345,0,0.69,0.118,0.69,0.272l-0.023,0.12l-0.37,1l-0.096,0.106
		c-0.07,0-0.286-0.129-0.559-0.129c-0.371,0-0.75,0.403-0.906,0.569V67.001z"/>
	<path d="M76.983,66.619l0.034,0.119c0,0.286-0.963,0.631-1.678,0.631c-1.656,0-2.644-1.012-2.644-3.023s1.013-3.263,2.774-3.263
		c0.643,0,1.69,0.356,1.69,0.726l-0.035,0.106l-0.441,0.774l-0.083,0.059c-0.12,0-0.511-0.475-1.131-0.475
		c-0.81,0-1.166,0.618-1.166,1.988c0,1.309,0.309,1.916,1.224,1.916c0.61,0,0.846-0.404,1.062-0.404l0.083,0.06L76.983,66.619z"/>
	<path d="M82.839,67.001c0,0.13-0.023,0.165-0.165,0.165h-1.179c-0.143,0-0.168-0.035-0.168-0.165v-3.669
		c0-0.451-0.058-0.998-0.665-0.998c-0.5,0-0.857,0.355-1.013,0.498v4.169c0,0.13-0.023,0.165-0.167,0.165h-1.18
		c-0.142,0-0.165-0.035-0.165-0.165v-8.002c0-0.179,0.084-0.179,0.226-0.216l1.001-0.2l0.166-0.037c0.096,0,0.119,0.049,0.119,0.251
		v2.963c0.322-0.261,0.797-0.677,1.645-0.677c1.261,0,1.545,0.844,1.545,1.881V67.001z"/>
	<path d="M87.544,63.522c0-0.486-0.036-1.333-0.858-1.333c-0.928,0-0.977,1.001-1.011,1.333H87.544z M88.925,66.535l0.035,0.131
		c0,0.31-1.191,0.703-2.132,0.703c-1.571,0-2.665-0.894-2.665-3.085c0-1.893,1.01-3.201,2.604-3.201
		c2.025,0,2.381,1.809,2.381,3.251c0,0.225-0.046,0.298-0.271,0.298h-3.202c0,0.665,0.188,1.487,1.31,1.487
		c0.855,0,1.345-0.393,1.513-0.393l0.13,0.096L88.925,66.535z"/>
	<path fill="#D40032" d="M35.705,20.461c0,0,9.378,0.013,10.05,0.015c0.517-1.887,0.761-3.453,0.761-5.773
		C46.516,9.688,46.55,0,46.55,0h-0.447c0,1.2-0.435,3.296-0.858,4.672c-0.426,1.377-2.014,4.626-4.344,6.641
		c-2.331,2.012-5.367,5.191-7.166,7.592c-1.8,2.402-3.53,6.533-3.603,10.029c-0.07,3.497,0.708,5.651,1.377,7.806
		c0.672,2.154,2.579,4.626,4.378,6.178c1.801,1.557,4.378,2.649,5.545,3.391c1.164,0.742,3.14,2.296,3.565,4.098
		c-0.458-0.919-0.531-1.307-3.142-3.285c-2.612-1.977-5.297-1.73-8.51-4.378c-3.213-2.646-3.837-4.917-4.931-7.708
		c-0.474-1.207-1.117-4.446-1.284-7.01c-0.056,0-0.404,0-0.52-0.021c-0.088,5.116,0.023,12.138,0.273,15.763
		c0.423,6.145,2.578,9.358,4.767,11.406c2.189,2.049,5.648,2.826,6.212,2.93c0.566,0.107,2.33,0.178,3.602,0.849
		c1.271,0.67,2.79,1.977,3.601,4.451c0.813,2.47,1.059,8.616,1.059,8.616h0.423c0,0,0.178-7.595,0.178-12.324
		c0-4.736-0.566-7.063-1.449-9.535c-0.882-2.475-2.93-4.098-5.084-5.509c-2.152-1.414-3.952-3.109-4.73-5.334
		c-0.777-2.225-0.211-4.273,1.164-6.533c1.379-2.261,3.594-3.187,6.18-6.11c0.639-0.72,1.457-1.658,1.859-2.241
		c-0.275,0.004-12.652,0-12.652,0L35.705,20.461z"/>
	<polygon points="52.058,21.556 52.058,2.187 50.044,4.586 50.062,21.567 36.176,21.567 34.391,23.349 50.059,23.349 50.054,69.255 
		52.058,67.112 52.058,23.354 67.395,23.349 69.635,21.557 	"/>
</g>
</svg>
